# xmcd
# 
# Track frame offsets:
#     150
#     17871
#     36526
#     62992
#     91961
#     119602
#     141413
#     163315
#     187080
#     208814
#     238447
#     261654
# 
# Disc length: 3856
# 
# Revision: 1
# Processed by: cddbd v1.5.2PL0 Copyright (c) Steve Scherf et al.
# Submitted via: fre:ac v1.0.17
# 
DISCID=ce0f0e0c
DTITLE=Tuomas Kyrö - Illoisia Aikoja, Mielensäpahoittaja
DYEAR=0
DGENRE=Audioslarva på tatten
TTITLE0=Cd01-01
TTITLE1=Cd01-02
TTITLE2=Cd01-03
TTITLE3=Cd01-04
TTITLE4=Cd01-05
TTITLE5=Cd01-06
TTITLE6=Cd01-07
TTITLE7=Cd01-08
TTITLE8=Cd01-09
TTITLE9=Cd01-10
TTITLE10=Cd01-11
TTITLE11=Cd01-12
EXTD=Sluta Runka !
EXTT0=
EXTT1=
EXTT2=
EXTT3=
EXTT4=
EXTT5=
EXTT6=
EXTT7=
EXTT8=
EXTT9=
EXTT10=
EXTT11=
PLAYORDER=
